<svg xmlns="http://www.w3.org/2000/svg" viewBox="0 0 1948.48 1297.06" role="img" aria-label="The Moon Charm">
  <g fill="#190D61" transform="translate(90,90)">
    <g transform="translate(-231.000000,1865.505239) scale(0.100000,-0.100000)"><path d="M5190 18651 c-19 -5 -73 -14 -120 -21 -75 -10 -177 -43 -220 -71 -8 -5 -31 -17 -50 -25 -37 -17 -190 -140 -190 -153 0 -4 -13 -27 -28 -52 -16 -24 -37 -57 -47 -74 -34 -52 -63 -135 -76 -209 -6 -39 -15 -91 -19 -115 -13 -78 21 -427 45 -466 7 -11 16 -41 20 -65 7 -42 40 -131 85 -226 11 -23 20 -48 20 -56 0 -8 8 -23 19 -32 10 -9 21 -29 24 -44 6 -30 89 -175 136 -238 17 -23 31 -44 31 -48 0 -52 524 -677 619 -737 14 -9 51 -42 81 -74 62 -64 196 -180 280 -242 30 -22 68 -52 83 -67 15 -14 37 -31 48 -36 49 -27 -8 -61 -158 -95 -34 -7 -72 -19 -85 -26 -12 -6 -43 -18 -68 -25 -43 -12 -203 -76 -285 -114 -22 -10 -56 -25 -75 -34 -19 -9 -42 -20 -50 -25 -8 -5 -28 -16 -45 -24 -81 -39 -197 -104 -256 -143 -36 -24 -69 -44 -74 -44 -11 0 -130 -104 -181 -157 -22 -24 -45 -43 -51 -43 -12 0 -135 -137 -246 -275 -13 -16 -28 -41 -32 -55 -4 -14 -15 -34 -25 -45 -10 -11 -23 -37 -29 -57 -7 -20 -19 -42 -27 -48 -7 -7 -14 -22 -14 -34 0 -11 -12 -52 -25 -91 -34 -95 -36 -307 -5 -405 11 -34 20 -68 20 -75 0 -7 11 -29 25 -49 14 -20 25 -43 25 -50 0 -47 231 -278 358 -359 23 -15 59 -38 80 -51 88 -58 304 -148 407 -171 39 -8 81 -20 95 -26 61 -26 473 -53 600 -39 47 5 136 14 199 20 63 6 122 15 131 20 10 5 51 15 91 21 41 6 86 17 100 24 14 8 59 23 100 34 83 22 176 54 205 69 10 6 44 21 74 35 95 43 294 141 309 152 17 13 174 99 221 121 19 9 66 37 106 62 39 26 93 61 119 77 27 17 67 42 89 57 23 16 52 34 66 40 26 13 61 37 108 74 15 12 39 24 55 28 15 3 27 10 27 15 0 5 19 23 43 39 23 15 86 59 139 95 54 37 100 67 103 67 9 0 5 -49 -5 -55 -5 -3 -14 -25 -21 -48 -6 -23 -31 -75 -55 -116 -24 -40 -44 -82 -44 -91 0 -10 -10 -31 -23 -47 -12 -15 -28 -39 -35 -53 -17 -36 -88 -147 -115 -180 -12 -15 -49 -65 -81 -109 -33 -45 -65 -85 -71 -89 -6 -4 -35 -36 -64 -72 -72 -88 -331 -351 -411 -419 -36 -30 -72 -60 -80 -68 -28 -25 -93 -73 -99 -73 -3 0 -26 -19 -51 -43 -25 -23 -54 -49 -66 -57 -44 -32 -190 -127 -215 -141 -15 -8 -53 -32 -85 -54 -71 -47 -86 -56 -189 -110 -44 -23 -107 -58 -140 -76 -33 -19 -82 -44 -110 -56 -27 -12 -111 -48 -185 -81 -182 -79 -188 -82 -357 -138 -27 -8 -67 -24 -91 -35 -23 -10 -51 -19 -62 -19 -11 0 -51 -11 -88 -23 -37 -13 -84 -27 -104 -31 -20 -4 -56 -15 -80 -26 -24 -10 -68 -22 -98 -26 -30 -4 -66 -12 -80 -19 -14 -7 -50 -15 -80 -19 -30 -4 -89 -15 -130 -26 -41 -10 -113 -24 -160 -30 -47 -7 -112 -18 -145 -26 -33 -7 -112 -18 -175 -24 -63 -6 -135 -15 -160 -20 -197 -42 -1016 -57 -1497 -28 -333 21 -333 21 -333 -51 0 -45 16 -80 38 -81 38 -3 222 -23 277 -31 109 -15 1013 -23 1120 -10 106 13 242 26 415 41 69 5 157 16 195 24 39 8 106 18 150 22 44 3 99 12 121 20 23 7 81 18 130 25 49 6 104 17 121 25 18 7 67 18 109 23 41 6 84 16 95 22 11 5 54 17 95 24 41 8 84 20 94 25 11 6 39 15 62 20 55 11 209 60 318 100 47 17 108 40 135 50 28 10 84 32 125 50 41 17 91 36 110 42 19 6 51 19 70 29 47 25 168 79 177 79 3 0 14 6 22 14 9 7 45 28 81 47 82 41 215 114 260 143 19 13 53 34 75 48 36 22 121 78 180 118 31 21 64 46 152 115 78 62 112 87 173 129 119 82 553 548 667 716 32 47 63 90 69 95 32 30 118 173 195 328 106 212 159 333 159 366 0 14 11 47 25 73 14 26 25 56 25 68 0 25 34 60 59 60 19 0 20 -7 16 -147 -23 -835 -35 -1126 -55 -1323 -5 -52 -14 -201 -20 -330 -6 -129 -15 -259 -20 -288 -5 -29 -14 -155 -20 -280 -7 -125 -14 -230 -16 -234 -8 -13 -32 -242 -39 -368 -3 -69 -12 -161 -20 -205 -7 -44 -19 -143 -25 -220 -6 -77 -15 -158 -21 -180 -5 -22 -16 -108 -24 -191 -8 -84 -21 -176 -29 -205 -8 -30 -20 -106 -26 -169 -5 -63 -16 -136 -24 -162 -8 -25 -17 -84 -21 -130 -3 -45 -12 -99 -20 -118 -7 -19 -19 -78 -25 -130 -7 -51 -18 -110 -25 -130 -7 -19 -18 -75 -24 -122 -6 -48 -18 -102 -25 -120 -8 -18 -17 -53 -21 -78 -8 -53 -48 -218 -75 -310 -11 -36 -31 -105 -45 -155 -15 -49 -35 -115 -46 -145 -11 -30 -25 -72 -30 -92 -5 -21 -27 -76 -48 -122 -22 -47 -42 -100 -46 -118 -4 -18 -17 -46 -29 -63 -56 -80 -17 -273 64 -310 122 -56 342 -48 415 14 11 10 31 22 45 28 62 26 203 180 260 282 9 15 26 40 38 56 12 15 22 32 22 38 0 6 32 76 71 156 97 198 136 288 165 381 8 24 23 63 34 85 11 23 20 48 20 56 0 8 6 24 14 35 8 11 18 38 21 60 4 21 15 59 25 84 26 65 78 237 89 295 5 28 24 100 42 160 17 61 39 148 49 195 38 181 69 321 79 357 6 21 11 54 11 73 0 20 7 60 15 90 9 30 24 118 34 195 11 77 22 147 25 155 3 8 13 74 21 145 8 72 19 159 25 195 5 36 16 156 25 266 8 111 19 223 25 249 23 101 53 1022 47 1450 -6 478 -32 1073 -57 1299 -11 102 -5 113 62 120 29 2 123 12 208 21 85 8 300 18 478 22 281 5 326 8 351 24 45 28 48 105 4 124 -32 15 -390 18 -748 6 -1037 -32 -957 -43 -825 114 106 126 220 299 283 430 31 66 39 74 107 115 168 103 283 274 339 505 5 22 17 69 26 105 9 36 23 135 30 220 8 85 21 216 30 290 8 74 20 212 25 305 5 94 14 186 20 205 6 19 15 82 21 140 5 58 19 137 30 175 12 39 32 108 46 155 30 102 51 149 167 378 38 77 262 321 348 380 69 47 109 72 117 72 4 0 16 9 25 19 10 10 32 22 49 25 18 3 46 13 62 22 31 17 138 49 215 64 65 13 210 12 268 -1 136 -32 171 115 38 153 -48 13 -311 13 -376 -1 -79 -17 -266 -85 -330 -120 -86 -47 -206 -130 -254 -176 -26 -25 -52 -45 -56 -45 -4 0 -32 -30 -61 -66 -30 -36 -75 -90 -100 -119 -25 -30 -54 -71 -65 -91 -10 -20 -40 -74 -66 -118 -27 -45 -48 -90 -48 -101 0 -11 -12 -38 -25 -60 -14 -22 -25 -50 -25 -61 0 -12 -8 -32 -19 -45 -10 -13 -21 -46 -25 -74 -4 -27 -16 -69 -26 -92 -10 -24 -22 -75 -26 -115 -3 -40 -12 -87 -19 -104 -7 -17 -18 -96 -24 -175 -6 -79 -16 -173 -21 -209 -16 -108 -21 -164 -30 -348 -5 -98 -15 -206 -24 -242 -8 -36 -17 -103 -21 -150 -4 -47 -15 -104 -25 -126 -10 -23 -21 -61 -25 -84 -26 -157 -151 -303 -165 -195 -3 22 -9 45 -12 51 -4 6 -12 41 -18 79 -26 161 -131 250 -294 250 -128 0 -166 -19 -243 -120 -54 -70 -59 -305 -8 -390 63 -107 170 -205 223 -205 34 0 72 -18 72 -35 0 -26 -58 -139 -92 -180 -18 -22 -48 -62 -67 -90 -43 -63 -75 -100 -168 -198 -84 -89 -110 -97 -105 -32 7 110 2 577 -7 625 -6 30 -15 91 -21 135 -6 44 -22 127 -35 185 -13 58 -27 123 -30 145 -4 22 -13 49 -20 61 -7 11 -18 46 -24 77 -6 32 -15 66 -21 78 -7 11 -18 44 -27 72 -8 29 -18 57 -23 62 -4 6 -13 28 -20 50 -7 22 -21 54 -31 71 -11 17 -19 39 -19 48 0 23 -160 345 -207 414 -9 15 -34 59 -54 97 -19 39 -50 90 -68 115 -50 71 -124 180 -146 215 -37 58 -60 91 -78 110 -21 23 -73 90 -102 131 -121 172 -496 542 -670 662 -33 23 -78 54 -100 70 -139 98 -269 172 -509 288 -22 10 -55 28 -75 39 -35 19 -87 39 -216 84 -33 11 -68 25 -78 31 -86 51 -573 124 -667 101z m374 -187 c28 -8 76 -19 106 -25 30 -6 69 -17 85 -25 17 -7 57 -23 90 -34 197 -70 313 -120 420 -184 28 -16 70 -40 95 -53 352 -183 642 -419 912 -743 44 -52 93 -111 110 -130 54 -63 158 -198 158 -206 0 -4 8 -16 17 -26 10 -11 26 -34 38 -52 11 -19 43 -66 70 -106 28 -40 70 -110 95 -156 25 -45 71 -129 102 -184 60 -107 101 -193 175 -375 24 -60 51 -124 59 -142 8 -17 14 -38 14 -47 0 -8 9 -38 20 -66 11 -28 26 -79 34 -113 8 -34 21 -80 30 -102 8 -22 15 -55 16 -72 0 -18 6 -50 14 -70 17 -45 22 -77 41 -288 42 -453 3 -744 -98 -745 -18 -1 -59 -7 -92 -15 -33 -8 -81 -15 -107 -15 -25 0 -75 -9 -110 -20 -34 -11 -80 -20 -101 -20 -21 0 -64 -11 -97 -25 -33 -14 -67 -25 -76 -25 -52 0 -106 -107 -65 -130 30 -16 132 -12 166 6 101 54 435 97 435 57 0 -23 -467 -363 -498 -363 -5 0 -15 -7 -23 -16 -7 -8 -35 -30 -63 -48 -28 -18 -64 -41 -80 -52 -49 -32 -100 -62 -131 -77 -16 -8 -36 -21 -44 -30 -7 -10 -18 -17 -23 -17 -5 0 -105 -53 -222 -117 -215 -120 -239 -133 -381 -198 -44 -20 -97 -45 -117 -56 -20 -10 -49 -19 -63 -19 -15 0 -47 -8 -73 -19 -94 -38 -209 -70 -272 -77 -36 -4 -83 -13 -105 -21 -97 -34 -625 -36 -713 -2 -15 6 -60 17 -100 25 -40 7 -85 20 -100 28 -15 8 -46 18 -67 22 -22 4 -51 15 -64 25 -13 11 -34 19 -46 19 -12 0 -34 9 -48 20 -13 11 -53 35 -88 53 -93 50 -151 91 -221 157 -35 33 -66 60 -70 60 -25 1 -130 199 -152 288 -34 142 25 464 93 507 6 3 11 15 11 26 0 10 11 29 25 41 14 12 25 26 25 31 0 25 248 282 339 351 92 69 161 117 213 145 27 14 73 40 103 56 113 62 262 135 277 135 8 0 35 11 60 24 25 13 58 27 74 30 17 4 52 18 79 31 26 14 57 25 67 25 10 0 29 6 41 14 12 8 49 19 82 25 33 5 81 19 106 30 63 28 224 39 259 17 14 -9 48 -27 75 -41 28 -15 73 -39 100 -55 28 -16 61 -34 75 -41 14 -7 32 -18 40 -25 15 -13 59 -29 235 -91 200 -69 424 -31 465 80 6 18 18 47 26 65 20 45 17 76 -11 157 -48 135 -145 184 -417 211 -83 8 -365 -12 -476 -33 -103 -20 -151 -13 -205 26 -23 18 -76 56 -117 86 -75 54 -86 63 -170 136 -25 22 -62 54 -83 72 -85 71 -365 346 -415 407 -30 36 -74 88 -98 115 -88 102 -125 147 -138 174 -8 15 -22 34 -31 41 -15 13 -85 107 -110 149 -5 9 -22 35 -37 58 -15 23 -28 44 -28 48 0 4 -8 19 -19 33 -32 47 -151 291 -166 342 -4 14 -15 43 -25 65 -10 22 -28 81 -40 130 -108 440 -2 773 290 905 14 7 43 20 65 31 82 38 448 47 569 13z m3344 -2728 c62 -66 67 -82 67 -223 -1 -138 -12 -158 -87 -151 -180 18 -263 318 -114 409 52 32 77 25 134 -35z m-2043 -236 c140 -18 195 -56 195 -134 0 -102 -50 -114 -275 -63 -68 16 -275 114 -320 151 -45 38 -25 45 135 49 80 1 156 3 170 4 14 2 57 -2 95 -7z"/><path d="M11805 13165 c-16 -8 -39 -14 -51 -15 -12 0 -31 -9 -43 -19 -13 -11 -35 -23 -49 -26 -58 -13 -242 -224 -242 -276 0 -8 -10 -42 -22 -74 -20 -56 -22 -82 -26 -420 -3 -315 -6 -362 -20 -372 -23 -18 -719 -18 -758 -1 -27 12 -27 12 -22 333 6 394 9 404 131 430 58 12 30 32 -55 39 -135 10 -528 6 -576 -6 -43 -11 -43 -11 20 -42 95 -47 89 23 86 -960 -3 -936 1 -889 -85 -1027 -23 -37 -115 -112 -152 -124 -41 -13 -25 -43 33 -61 79 -25 276 7 348 55 44 30 138 129 138 146 0 4 8 19 19 33 76 108 90 214 90 695 1 413 -45 366 368 369 369 2 404 0 420 -15 21 -20 22 -671 1 -694 -9 -10 -23 -33 -32 -50 -10 -21 -26 -35 -44 -39 -160 -34 -78 -49 268 -49 352 0 433 11 308 44 -98 25 -93 -20 -96 861 -3 804 -1 857 39 989 24 79 83 155 155 199 54 34 66 56 42 80 -16 16 -155 14 -193 -3z"/><path d="M13300 12784 c-36 -11 -137 -14 -495 -15 -247 -1 -481 -4 -520 -8 -73 -6 -89 -21 -35 -32 38 -8 83 -49 105 -96 22 -47 30 -1400 9 -1474 -24 -79 -53 -113 -107 -123 -73 -14 -59 -32 31 -40 112 -10 1172 -5 1199 5 24 9 36 45 47 137 4 29 16 81 26 115 53 166 28 235 -38 108 -18 -36 -44 -75 -57 -87 -14 -13 -25 -28 -25 -33 0 -6 -21 -22 -47 -37 -27 -15 -55 -34 -65 -41 -67 -58 -507 -88 -546 -38 -24 31 -33 644 -10 672 8 10 56 13 183 13 229 0 312 -39 346 -162 12 -45 24 -49 34 -11 7 29 5 399 -3 451 -5 40 -22 42 -22 3 0 -100 -123 -167 -320 -171 -192 -5 -205 -3 -218 24 -13 30 -14 624 -1 672 12 43 5 42 259 33 275 -9 314 -20 357 -104 9 -16 28 -44 43 -61 32 -37 40 -7 40 164 0 152 -33 179 -170 136z"/><path d="M17492 10738 c-5 -7 -15 -40 -22 -73 -7 -33 -17 -69 -23 -80 -6 -11 -16 -42 -23 -70 -37 -146 -55 -178 -109 -191 -27 -6 -81 -21 -120 -32 -123 -36 -208 -55 -295 -64 -47 -5 -130 -20 -185 -33 -55 -13 -118 -27 -140 -31 -22 -4 -49 -13 -60 -19 -11 -7 -36 -16 -56 -19 -19 -3 -53 -15 -74 -26 -22 -11 -48 -20 -60 -20 -11 0 -36 -10 -55 -22 -19 -11 -54 -25 -78 -29 -24 -5 -55 -18 -69 -29 -14 -11 -37 -20 -52 -20 -14 0 -39 -9 -56 -20 -16 -11 -37 -20 -46 -20 -9 0 -37 -11 -64 -25 -26 -14 -68 -29 -94 -32 -25 -3 -57 -14 -71 -24 -14 -9 -53 -20 -87 -23 -35 -3 -80 -13 -100 -21 -21 -9 -64 -18 -98 -21 -33 -3 -78 -12 -100 -19 -71 -24 -289 -47 -595 -63 -161 -9 -175 -9 -380 8 -336 27 -383 32 -418 44 -21 8 -80 19 -131 26 -52 7 -107 18 -125 25 -17 7 -62 18 -100 24 -38 7 -78 17 -89 23 -10 5 -47 18 -81 28 -69 21 -136 45 -251 90 -44 18 -101 38 -128 45 -26 8 -59 21 -75 29 -46 25 -154 65 -212 77 -30 6 -66 17 -80 24 -14 7 -56 16 -94 20 -38 4 -87 14 -110 22 -23 8 -75 18 -116 23 -41 4 -129 18 -195 30 -178 32 -966 33 -1096 2 -46 -12 -130 -28 -187 -36 -57 -9 -111 -20 -120 -25 -9 -5 -48 -12 -87 -16 -38 -4 -83 -13 -100 -20 -16 -6 -66 -20 -110 -30 -44 -9 -86 -22 -93 -28 -16 -13 -148 -67 -165 -67 -7 0 -34 -12 -62 -25 -27 -14 -56 -25 -63 -25 -7 0 -30 -9 -50 -19 -21 -11 -56 -23 -77 -27 -22 -4 -56 -15 -75 -25 -19 -11 -41 -19 -48 -19 -7 0 -38 -11 -70 -24 -31 -13 -76 -26 -100 -30 -24 -4 -53 -13 -65 -21 -12 -8 -63 -19 -112 -25 -50 -5 -106 -14 -125 -20 -19 -6 -96 -17 -170 -25 -148 -16 -170 -27 -170 -85 0 -45 17 -52 106 -41 264 33 312 41 344 54 19 8 58 18 85 21 47 7 72 14 235 66 36 12 83 26 105 32 22 5 57 18 77 29 20 10 46 19 58 19 11 0 42 11 68 25 26 14 54 25 62 25 8 0 33 11 55 25 22 13 47 25 55 25 9 0 34 9 55 20 22 11 58 23 80 27 22 3 52 12 66 19 15 7 49 18 75 24 27 6 72 19 99 30 104 39 283 70 585 101 155 16 714 13 838 -5 59 -8 158 -20 220 -25 62 -6 121 -15 132 -21 10 -6 61 -19 112 -30 51 -11 111 -26 133 -34 22 -8 51 -15 64 -16 13 0 38 -8 55 -19 17 -10 49 -22 71 -26 22 -4 54 -15 70 -25 17 -9 48 -21 70 -25 22 -4 47 -13 55 -20 8 -7 35 -18 59 -25 24 -6 60 -20 80 -31 20 -10 41 -19 47 -19 7 0 36 -11 66 -25 29 -14 64 -25 76 -25 13 0 35 -9 49 -20 14 -11 39 -20 55 -20 15 0 60 -11 98 -24 38 -14 95 -28 127 -31 32 -4 77 -16 100 -26 23 -11 63 -19 88 -19 26 0 93 -10 148 -22 137 -31 1049 -35 1147 -6 30 9 93 22 139 28 46 6 100 17 120 25 20 7 66 18 103 24 36 6 82 18 102 26 19 8 48 15 63 15 15 1 44 7 63 14 106 42 180 69 220 82 25 7 61 22 80 33 19 10 51 21 71 25 19 3 53 15 74 26 22 11 47 20 58 20 10 0 35 9 55 19 21 11 56 22 77 26 22 4 55 16 73 26 18 10 44 19 57 19 14 0 48 9 77 20 29 12 89 27 133 35 44 8 116 21 160 30 127 23 206 20 305 -15 47 -16 95 -30 107 -30 27 0 33 -11 67 -120 15 -47 34 -105 42 -130 8 -25 21 -70 27 -100 21 -99 66 -65 101 75 51 210 80 272 133 280 21 3 61 15 88 25 28 10 64 22 80 25 169 36 262 105 140 105 -7 0 -32 9 -56 20 -24 11 -54 20 -67 20 -12 0 -49 11 -82 25 -33 14 -73 25 -90 25 -49 0 -85 48 -105 139 -10 41 -23 84 -30 96 -7 11 -16 42 -20 70 -11 79 -50 140 -73 113z"/><path d="M15905 8588 c-128 -61 -116 -34 -95 -218 16 -150 14 -518 -5 -706 -18 -180 -22 -174 95 -174 131 0 140 11 104 125 -30 96 -24 426 8 500 62 139 270 196 368 100 91 -89 111 -381 46 -678 -8 -36 20 -47 118 -47 116 0 122 5 106 87 -6 32 -15 146 -20 253 -16 344 -50 428 -199 494 -139 62 -355 5 -392 -103 -11 -32 -32 -40 -46 -18 -4 6 -10 100 -13 207 -6 218 -4 213 -75 178z"/><path d="M10084 8527 c-2 -7 -3 -87 -2 -177 3 -165 3 -165 31 -168 35 -4 53 -33 63 -97 3 -27 14 -70 24 -95 9 -25 20 -63 24 -85 4 -22 16 -78 27 -125 12 -47 24 -130 27 -185 7 -100 7 -100 106 -103 124 -4 122 -6 129 126 3 61 12 122 20 142 19 44 31 141 23 176 -11 43 -34 11 -41 -60 -8 -72 -17 -91 -38 -83 -21 8 -56 80 -63 130 -3 23 -14 69 -24 102 -53 170 -75 294 -79 447 -2 59 -19 68 -127 68 -68 0 -96 -4 -100 -13z"/><path d="M10647 8529 c-10 -6 -17 -20 -15 -37 4 -65 -26 -337 -38 -345 -27 -16 -48 -167 -24 -167 17 0 31 39 37 105 5 60 8 66 36 80 43 21 46 15 67 -134 11 -73 24 -149 30 -169 6 -20 13 -108 16 -196 2 -87 7 -162 10 -167 6 -10 223 -13 248 -3 21 8 20 24 -3 76 -36 82 -71 208 -71 255 0 27 -9 80 -19 118 -10 39 -24 116 -30 172 -7 56 -17 116 -22 135 -6 18 -12 86 -14 150 -2 64 -6 122 -10 127 -8 14 -174 14 -198 0z"/><path d="M15020 8514 c-41 -15 -82 -32 -90 -39 -8 -7 -30 -20 -49 -30 -19 -9 -43 -26 -54 -36 -12 -10 -24 -19 -28 -19 -6 0 -19 -18 -86 -121 -13 -19 -23 -44 -23 -55 0 -12 -9 -47 -21 -80 -24 -69 -21 -201 5 -253 9 -16 16 -40 16 -52 0 -83 166 -241 317 -301 112 -45 344 -48 434 -5 31 15 60 27 65 27 22 0 144 141 144 165 0 7 9 32 20 56 118 260 -222 554 -456 394 -78 -54 -137 -156 -130 -225 9 -85 82 -210 122 -210 8 0 28 -10 44 -21 80 -60 220 16 220 119 0 76 -60 142 -116 128 -26 -7 -26 -7 15 -45 54 -50 57 -102 10 -156 -40 -46 -132 -53 -143 -12 -3 13 -17 40 -31 61 -91 134 70 303 221 232 99 -46 165 -172 135 -258 -6 -17 -11 -40 -11 -51 0 -28 -63 -120 -97 -142 -15 -10 -34 -26 -40 -36 -26 -36 -264 -28 -308 11 -11 10 -37 25 -58 35 -134 62 -230 332 -183 518 9 37 16 77 16 90 0 13 9 36 20 50 11 14 20 29 20 35 0 5 13 26 30 47 16 20 32 45 35 56 6 17 27 32 138 91 59 31 230 29 260 -4 13 -14 32 -29 43 -32 10 -4 37 -29 58 -56 43 -55 51 -55 67 -1 18 61 -57 130 -151 137 -233 17 -305 15 -380 -12z"/><path d="M11400 8330 c-390 -143 -399 -656 -13 -814 160 -66 435 -4 520 118 182 260 105 583 -164 682 -105 38 -259 45 -343 14z m289 -53 c18 -15 36 -27 41 -27 23 0 79 -130 100 -233 23 -116 23 -112 -17 -272 -60 -245 -386 -296 -480 -76 -8 18 -24 46 -35 61 -34 47 -31 296 6 373 14 31 26 58 26 61 0 3 11 22 25 42 23 34 43 51 109 92 40 25 187 11 225 -21z"/><path d="M12420 8336 c-19 -8 -51 -19 -70 -26 -19 -7 -46 -23 -61 -36 -14 -13 -30 -24 -37 -24 -14 0 -79 -87 -118 -159 -41 -76 -43 -256 -5 -336 172 -353 665 -361 842 -14 89 174 1 466 -163 542 -18 8 -58 27 -89 41 -65 30 -233 37 -299 12z m247 -50 c15 -12 38 -28 50 -34 11 -7 31 -33 44 -59 12 -27 31 -59 40 -73 45 -65 43 -319 -4 -404 -15 -27 -27 -54 -27 -60 -1 -36 -112 -120 -165 -124 -152 -13 -239 44 -306 198 -58 135 -12 422 84 517 64 64 227 86 284 39z"/><path d="M13210 8325 c-25 -14 -57 -25 -73 -25 -37 0 -42 -17 -22 -87 9 -32 17 -71 16 -88 0 -16 0 -104 -1 -195 0 -91 -6 -220 -13 -287 -17 -157 -19 -153 98 -153 102 0 129 12 120 53 -29 128 -34 171 -37 337 -3 166 -1 189 15 214 23 34 25 81 5 104 -9 9 -18 43 -20 75 -7 82 -19 89 -88 52z"/><path d="M13515 8341 c-76 -13 -164 -79 -165 -123 0 -24 25 -23 47 1 88 95 279 40 346 -99 36 -74 43 -403 11 -509 -33 -110 -24 -121 106 -121 116 0 115 -2 95 146 -8 65 -15 163 -15 219 -1 149 -21 286 -48 320 -12 15 -22 33 -22 39 0 18 -60 73 -100 91 -19 9 -46 23 -60 30 -26 15 -123 18 -195 6z"/><path d="M17020 8344 c-8 -3 -22 -8 -30 -10 -29 -10 13 -24 73 -24 85 0 169 -64 183 -140 4 -19 12 -46 19 -60 56 -115 -11 -211 -90 -126 -28 30 -205 48 -233 23 -10 -8 -40 -27 -69 -42 -169 -90 -170 -342 -2 -430 16 -8 43 -22 60 -31 91 -48 266 -3 359 91 55 56 66 56 89 2 48 -112 168 -146 244 -68 53 54 42 125 -13 76 -31 -28 -82 12 -95 75 -4 19 -16 61 -26 92 -10 32 -19 77 -19 100 0 63 -54 270 -85 322 -63 107 -261 189 -365 150z m204 -414 c81 -41 119 -170 77 -256 -12 -24 -27 -44 -32 -44 -5 0 -18 -9 -29 -20 -47 -47 -216 -45 -267 2 -170 159 40 424 251 318z"/><path d="M17830 8324 c-25 -13 -57 -24 -73 -24 -37 0 -42 -19 -24 -88 32 -117 29 -459 -4 -635 -17 -86 -15 -88 116 -85 118 3 118 3 90 148 -30 154 -8 415 39 469 7 9 17 30 21 48 6 31 27 49 109 95 34 20 139 24 193 9 84 -24 137 -164 94 -249 -60 -117 -219 -111 -252 10 -8 33 -13 37 -25 28 -42 -36 5 -159 77 -200 60 -34 196 -36 231 -3 13 11 36 25 52 30 16 5 33 16 37 24 67 130 74 179 39 258 -11 24 -20 50 -20 58 0 61 -158 133 -291 133 -84 0 -239 -80 -239 -124 0 -4 -16 -22 -35 -42 -42 -41 -44 -38 -47 70 -4 96 -18 108 -88 70z"/><path d="M19000 8324 c-30 -14 -68 -39 -83 -56 -33 -36 -53 -27 -63 29 -8 44 -22 49 -81 29 -27 -8 -61 -19 -78 -24 -26 -8 -30 -13 -27 -38 11 -85 12 -614 2 -676 -14 -94 -10 -98 96 -98 104 0 116 9 102 77 -39 193 -5 620 52 641 8 3 28 16 45 30 73 61 197 20 253 -83 36 -67 42 -473 8 -579 -24 -79 -15 -86 105 -86 113 0 116 4 95 109 -25 121 -29 387 -8 480 16 73 16 73 -8 92 -29 21 -39 31 -84 85 -79 93 -213 121 -326 68z"/><path d="M19550 8324 c-61 -28 -109 -77 -110 -111 0 -32 21 -29 51 8 42 51 181 50 234 -1 72 -69 88 -157 73 -396 -23 -344 -27 -329 77 -332 121 -4 134 5 110 74 -13 39 -18 99 -22 289 -5 226 -7 243 -29 291 -13 28 -24 60 -24 71 0 25 -93 99 -147 119 -63 22 -150 17 -213 -12z"/><path d="M16876 8276 c-70 -68 -73 -113 -13 -179 43 -46 187 -57 227 -17 27 27 30 101 3 78 -88 -76 -218 6 -164 103 40 70 11 78 -53 15z"/><path d="M10049 8158 c-1 -2 -4 -60 -8 -129 -6 -108 -10 -130 -29 -154 -15 -19 -22 -42 -22 -74 0 -25 -5 -62 -10 -81 -15 -58 -55 -168 -63 -176 -27 -27 1 -54 57 -54 54 0 56 7 56 204 0 146 3 183 15 196 17 18 42 226 32 254 -5 13 -24 22 -28 14z"/></g>
  </g>
</svg>
